<?xml version="1.0" encoding="UTF-8" standalone="no"?>
<!DOCTYPE svg PUBLIC "-//W3C//DTD SVG 1.1//EN" "http://www.w3.org/Graphics/SVG/1.1/DTD/svg11.dtd">
<svg width="100%" height="100%" viewBox="0 0 500 500" version="1.1" xmlns="http://www.w3.org/2000/svg" xmlns:xlink="http://www.w3.org/1999/xlink" xml:space="preserve" xmlns:serif="http://www.serif.com/" style="fill-rule:evenodd;clip-rule:evenodd;stroke-linejoin:round;stroke-miterlimit:2;">
    <g id="XMLID_1_">
        <path id="XMLID_2_" d="M341.9,319.3L387.2,319.3L387.2,210.5L336.2,159.5L304.2,191.5L342,229.3L342,319.3L341.9,319.3ZM387.3,342L229.2,342L191.4,304.2L207.4,288.2L238.6,319.4L302.8,319.4L239.7,256L255.8,239.9L319,303.1L319,238.9L288,207.9L303.9,192L225.4,113.1L67.5,113.1L112.7,158.3L112.7,158.4L206.4,158.4L239.5,191.5L191.1,239.9L158,206.8L158,181.1L112.7,181.1L112.7,225.6L191.1,304L159.2,335.9L210.2,386.9L432.5,386.9L387.3,342Z" style="fill:rgb(255,197,65);fill-rule:nonzero;"/>
    </g>
</svg>
