<?xml version="1.0" encoding="UTF-8" standalone="no"?>
<!DOCTYPE svg PUBLIC "-//W3C//DTD SVG 1.1//EN" "http://www.w3.org/Graphics/SVG/1.1/DTD/svg11.dtd">
<svg width="100%" height="100%" viewBox="0 0 4167 3334" version="1.1" xmlns="http://www.w3.org/2000/svg" xmlns:xlink="http://www.w3.org/1999/xlink" xml:space="preserve" xmlns:serif="http://www.serif.com/" style="fill-rule:evenodd;clip-rule:evenodd;stroke-linejoin:round;stroke-miterlimit:2;">
    <g transform="matrix(7.4911,0,0,7.4911,-1662.22,-657.636)">
        <path d="M654.837,378.291C652.999,366.815 654.596,342.221 654.596,342.221C654.596,342.221 658.245,361.663 665.477,364.457C677.091,346.688 683.841,325.454 683.841,302.643C683.841,240.124 633.168,189.451 570.657,189.451C533.4,189.451 500.339,207.453 479.71,235.24C488.159,244.636 494.917,255.591 499.476,267.604C512.399,241.349 539.426,223.292 570.657,223.292C614.451,223.292 649.953,258.794 649.953,302.587C649.953,346.38 614.451,381.884 570.657,381.884C540.001,381.884 513.411,364.485 500.219,339.027C494.691,328.38 491.525,316.316 491.375,303.53L491.352,303.53C491.175,282.558 483.71,263.333 471.373,248.256C468.085,244.246 464.456,240.522 460.529,237.153C445.033,223.801 424.858,215.743 402.799,215.743C353.89,215.743 314.237,255.387 314.237,304.305C314.237,322.15 319.529,338.758 328.609,352.666C334.264,350.485 337.124,335.268 337.124,335.268C337.124,335.268 338.377,354.514 336.938,363.491C335.257,373.982 328.554,388.996 307.376,404.816C335.35,401.111 349.471,388.986 356.341,379.693C369.85,388.039 385.763,392.857 402.799,392.857C425.481,392.857 446.166,384.335 461.828,370.306L459.582,366.388C454.141,356.928 449.963,346.798 447.113,336.298C437.179,350.011 421.033,358.933 402.799,358.933C372.598,358.933 348.116,334.451 348.116,304.25C348.116,274.048 372.598,249.566 402.799,249.566C420.653,249.566 436.51,258.125 446.491,271.365C453.129,280.167 457.158,291.039 457.465,302.838C457.474,303.302 457.483,303.776 457.483,304.25C457.753,324.165 463.174,342.825 472.458,358.989C475.049,363.464 477.918,367.753 481.074,371.82C501.77,398.595 534.198,415.827 570.657,415.827C592.438,415.827 612.771,409.662 630.03,399.003C638.821,410.878 656.871,426.374 692.624,431.099C665.542,410.887 656.982,391.697 654.837,378.291Z" style="fill:url(#_Linear1);"/>
    </g>
    <defs>
        <linearGradient id="_Linear1" x1="0" y1="0" x2="1" y2="0" gradientUnits="userSpaceOnUse" gradientTransform="matrix(-1.05628e-05,-241.648,241.648,-1.05628e-05,500,431.099)"><stop offset="0" style="stop-color:rgb(57,60,150);stop-opacity:1"/><stop offset="1" style="stop-color:rgb(187,42,79);stop-opacity:1"/></linearGradient>
    </defs>
</svg>
